<svg preserveAspectRatio="none" overflow="visible" style="display: block;" width="138.999" height="161" viewBox="0 0 138.999 161" fill="none" xmlns="http://www.w3.org/2000/svg">
<g id="Logo">
<g id="Group">
<path id="Vector" d="M138.999 0.162598V28.1011H40.6884V0.162598H138.999Z" fill="#E5FC54"/>
<path id="Vector_2" d="M138.995 93.9852H109.363V0.162598H138.995V93.9852Z" fill="#E5FC54"/>
<path id="Vector_3" d="M60.6722 94.0115L39.7431 74.038L109.378 7.58203L130.307 27.5556L60.6722 94.0115Z" fill="#E5FC54"/>
</g>
<path id="Vector_4" d="M28.8758 25.052H0.000235397V8.79544C0.000235397 7.06631 0.413968 5.5414 1.2557 4.23434C2.06889 2.90005 3.19595 1.85167 4.65114 1.11645C6.10633 0.367611 7.80406 0 9.73005 0C11.7131 0 13.4536 0.381225 14.9374 1.15729C16.3925 1.90613 17.5196 2.94089 18.3328 4.27518C19.146 5.58225 19.5455 7.09354 19.5455 8.79544V16.2021H28.8615V25.052H28.8758ZM12.7974 16.2021V11.7499C12.7974 10.8105 12.5406 10.1161 12.0412 9.66681C11.5419 9.19028 10.8 8.94521 9.81565 8.94521C9.14512 8.94521 8.60299 9.05413 8.17499 9.27197C7.73273 9.46259 7.39033 9.76212 7.16206 10.1978C6.9338 10.5926 6.81967 11.1236 6.81967 11.7636V16.2157H12.7831L12.7974 16.2021Z" fill="#E5FC54"/>
<path id="Vector_5" d="M29.3749 40.6696C29.3749 43.5561 28.9326 46.0204 28.0338 48.0763C27.1065 50.105 25.7512 51.6707 23.9679 52.76C22.156 53.8492 19.9162 54.4074 17.2483 54.4074H0V45.5575H17.1199C18.6607 45.5575 19.9304 45.1627 20.9433 44.3594C21.9563 43.5561 22.4556 42.3443 22.4556 40.7105C22.4556 39.0767 21.9563 37.8649 20.9433 37.0616C19.9304 36.2311 18.6607 35.8226 17.1199 35.8226H0V26.9727H17.2483C19.9019 26.9727 22.1417 27.5173 23.9679 28.6202C25.7655 29.6821 27.1208 31.2479 28.0338 33.3038C28.9326 35.3325 29.3749 37.7832 29.3749 40.6696Z" fill="#E5FC54"/>
<path id="Vector_6" d="M28.8756 83.7596H0V74.9096H12.3406L0 65.0931V54.1192L11.8698 64.0175L28.8613 53.9286V64.3851L18.0758 70.226L22.8123 74.9096H28.8613V83.7596H28.8756Z" fill="#E5FC54"/>
<path id="Vector_7" d="M28.8756 110.937H0V93.6733C0 91.6174 0.427997 89.9019 1.29826 88.5404C2.16852 87.1516 3.29558 86.1169 4.6937 85.4225C6.09183 84.7281 7.60409 84.3877 9.23048 84.3877C11.0709 84.3877 12.7258 84.7962 14.181 85.6267C15.6076 86.4572 16.749 87.5737 17.6192 88.9897L28.8613 83.5844V93.5236L19.16 97.7307V102.101H28.8613V110.951L28.8756 110.937ZM12.7543 102.088V95.879C12.7543 95.1846 12.469 94.5992 11.9126 94.1226C11.3277 93.6461 10.5573 93.401 9.60141 93.401C9.01648 93.401 8.50289 93.51 8.04636 93.7278C7.6041 93.9456 7.24742 94.2315 6.99063 94.6128C6.70529 94.9804 6.57689 95.4161 6.57689 95.8926V102.101H12.7401L12.7543 102.088Z" fill="#E5FC54"/>
<path id="Vector_8" d="M28.8756 140.659L0 130.611V120.318L28.8756 110.27V119.637L24.8096 120.794V130.448L28.8756 131.605V140.659ZM18.3326 128.61V122.605L13.7102 123.926C13.3678 124.035 12.9683 124.157 12.4975 124.28C12.0267 124.416 11.5131 124.552 10.9853 124.675C10.4574 124.811 9.92954 124.947 9.43021 125.07C8.90235 125.206 8.43156 125.328 8.04636 125.424V125.75C8.54569 125.859 9.13062 126.009 9.77262 126.186C10.4146 126.349 11.0851 126.526 11.7842 126.703C12.4547 126.894 13.0967 127.071 13.7102 127.262L18.3326 128.582V128.61Z" fill="#E5FC54"/>
<path id="Vector_9" d="M28.8756 161H0V144.743C0 143.014 0.413733 141.489 1.25546 140.182C2.06866 138.848 3.19571 137.799 4.65091 137.064C6.1061 136.315 7.80383 135.948 9.72982 135.948C11.6558 135.948 13.4534 136.329 14.9371 137.105C16.3923 137.854 17.5194 138.889 18.3326 140.223C19.1458 141.53 19.5452 143.041 19.5452 144.743V152.15H28.8613V161H28.8756ZM12.7971 152.15V147.698C12.7971 146.758 12.5403 146.064 12.041 145.615C11.5417 145.138 10.7998 144.893 9.81541 144.893C9.14488 144.893 8.60275 145.002 8.17475 145.22C7.73249 145.41 7.39009 145.71 7.16183 146.146C6.93356 146.554 6.81943 147.071 6.81943 147.711V152.164H12.7829L12.7971 152.15Z" fill="#E5FC54"/>
</g>
</svg>
